<!-- Created with Inkscape (http://www.inkscape.org/) -->
<svg xmlns:rdf="http://www.w3.org/1999/02/22-rdf-syntax-ns#" xmlns="http://www.w3.org/2000/svg" height="69.281456" width="199.99998" version="1.1" xmlns:cc="http://creativecommons.org/ns#" xmlns:xlink="http://www.w3.org/1999/xlink" xmlns:dc="http://purl.org/dc/elements/1.1/">
<defs>
<linearGradient id="linearGradient3894">
<stop stop-color="#222" offset="0"/>
<stop stop-color="#55555f" stop-opacity="0.94117647" offset="1"/>
</linearGradient>
<linearGradient id="linearGradient3215" y2="404.35266" xlink:href="#linearGradient3894" gradientUnits="userSpaceOnUse" x2="489.00403" gradientTransform="matrix(1.9016648,0,0,1.9016648,-742.65038,-728.53639)" y1="440.77267" x1="489.00403"/>
</defs>
<metadata>
<rdf:RDF>
<cc:Work rdf:about="">
<dc:format>image/svg+xml</dc:format>
<dc:type rdf:resource="http://purl.org/dc/dcmitype/StillImage"/>
<dc:title/>
</cc:Work>
</rdf:RDF>
</metadata>
<g transform="translate(-51.794893,-40.735424)">
<path fill="#e65ca3" d="m118.09186,54.296503-2.15625,1.218751,2.03125,3.499997c0.56431-0.59826,1.30812-1.017688,2.15625-1.156245l-2.03125-3.562503zm3.25,0.84375-0.71875,2.656248c0.0418-0.001,0.0829,0,0.125,0,0.69434,0,1.31323,0.208558,1.875,0.531254l0.71875-2.656248-2-0.531254zm5.25,1.437498-3.53125,2.031257c0.6617,0.511513,1.15831,1.22925,1.375,2.0625l3.40625-1.968752-1.25-2.125005zm-11.5625,2.218752-0.53125,1.968752,2.4375,0.656244c0.0404-0.709756,0.25022-1.382747,0.625-1.937499l-2.53125-0.687497zm9.5,2.531248c0.008,0.103887,0.0312,0.206441,0.0312,0.312506,0,0.632652-0.16617,1.192732-0.4375,1.718741l2.34375,0.625002,0.53125-1.999995-2.4687-0.656254zm-7.5625,0.781255-3.3125,1.937499,1.25,2.156247,3.15625-1.843752c-0.60264-0.588978-0.98192-1.371162-1.09375-2.249994zm6.71875,1.906246c-0.52193,0.643989-1.23042,1.143546-2.0625,1.343751l1.78125,3.124996,2.15625-1.249992-1.875-3.218755zm-4.9375,0.875002-0.59375,2.1875,1.96875,0.562496,0.59375-2.1875c-0.71851-0.0062-1.39609-0.213172-1.96875-0.562496z"/>
<path fill="url(#linearGradient3215)" d="m108.29715,109.19535,0-24.645574c-0.18256-6.024474-4.65527-10.22335-11.866386-10.22335-6.845974,0.18256-12.140228,4.016316-14.696065,10.22335-0.18256-6.024474-4.655276-10.22335-11.866389-10.22335-6.845974,0.18256-12.140228,4.016316-14.696065,9.85823l-0.36512-9.127991h-3.012237v34.138685h3.377357v-19.0775c0-7.393653,6.937292-12.779187,14.787345-12.779187,5.659355,0.27384,8.215192,3.377357,8.397752,7.211113v24.645574h3.377357v-19.625179c0-7.119814,7.119852-12.231508,14.787345-12.231508,5.659356,0.27384,8.215196,3.377357,8.397756,7.211113v24.645574h3.37735"/>
<path fill="url(#linearGradient3215)" d="m122.05903,109.19535,0-34.229965-3.37736,0,0,34.229965,3.37736,0m-1.27792-44.635874c1.3692,0,2.82967-1.186639,2.82967-2.920958,0-1.643038-1.46047-2.920957-2.82967-2.920957-1.46048,0-2.92096,1.277919-2.92096,2.920957,0,1.734319,1.46048,2.920958,2.92096,2.920958"/>
<path fill="url(#linearGradient3215)" d="m150.54691,78.434022c-2.55583-2.920957-6.66343-3.925036-9.21927-3.925036-4.47269,0-9.49311,3.103517-9.49311,9.401831,0,6.480873,5.38552,7.576232,8.67159,8.671591,3.92504,1.277919,8.03264,2.647117,8.03264,7.393673,0,4.929119-4.47272,6.754709-7.11984,6.937269-2.64711,0.18256-7.02855-1.36919-8.76287-3.74247l-2.00816,2.46456c2.46456,3.10351,7.02858,4.29015,10.49719,4.29015,7.57624,0,10.77103-5.65935,10.77103-10.132069,0-6.480855-6.48087-8.854151-11.40999-10.49719-3.19479-1.095359-5.38551-2.281997-5.38551-5.841914,0-4.381436,3.46864-5.933194,6.20703-5.933194,3.10352,0,6.48088,2.008158,7.48496,3.286077l1.73431-2.373278"/>
<path fill="url(#linearGradient3215)" d="m195.33397,109.19535,0-34.229965-2.92095,0-0.4564,9.401831c-2.46456-5.933194-7.66752-10.04079-14.87863-10.04079-9.85821,0-17.79958,8.032651-17.79958,17.799583,0,9.766951,7.94137,17.890861,17.79958,17.890861,7.21111,0,12.68791-4.47271,15.15247-10.405909l-0.27384,4.107599v5.47679h3.37735m-18.25598-2.19072c-8.48901,0-14.42222-6.57215-14.42222-14.878621,0-8.489013,5.93321-14.787346,14.42222-14.787346,8.58031,0,14.51351,6.298333,14.51351,14.787346,0,8.306471-5.9332,14.878621-14.51351,14.878621"/>
<path fill="url(#linearGradient3215)" d="m236.2887,109.19535-15.24374-21.085658,13.05302-12.322787-2.00815-2.190718-20.4467,18.986221,0-51.846989-3.28608,0,0,68.459931,3.37736,0,0-12.322786,6.93727-6.480874,13.78327,18.80366,3.83375,0"/>
<path fill="url(#linearGradient3215)" d="m250.24312,109.19535,0-34.229965-3.37736,0,0,34.229965,3.37736,0m-1.27792-44.635874c1.3692,0,2.82968-1.186639,2.82968-2.920958,0-1.643038-1.46048-2.920957-2.82968-2.920957-1.46048,0-2.92096,1.277919-2.92096,2.920957,0,1.734319,1.46048,2.920958,2.92096,2.920958"/>
</g>
</svg>
