<!-- Created with Inkscape (http://www.inkscape.org/) -->
<svg xmlns:rdf="http://www.w3.org/1999/02/22-rdf-syntax-ns#" xmlns="http://www.w3.org/2000/svg" height="24.472311" width="150" version="1.1" xmlns:cc="http://creativecommons.org/ns#" xmlns:xlink="http://www.w3.org/1999/xlink" xmlns:dc="http://purl.org/dc/elements/1.1/">
<defs>
<linearGradient id="linearGradient3894">
<stop stop-color="#222" offset="0"/>
<stop stop-color="#55555f" stop-opacity="0.94117647" offset="1"/>
</linearGradient>
<linearGradient id="linearGradient3376" y2="404.35266" xlink:href="#linearGradient3894" gradientUnits="userSpaceOnUse" x2="489.00403" gradientTransform="matrix(0.56264577,0,0,0.56264577,-92.124955,94.814086)" y1="440.77267" x1="489.00403"/>
</defs>
<metadata>
<rdf:RDF>
<cc:Work rdf:about="">
<dc:format>image/svg+xml</dc:format>
<dc:type rdf:resource="http://purl.org/dc/dcmitype/StillImage"/>
<dc:title/>
</cc:Work>
</rdf:RDF>
</metadata>
<g transform="translate(-52.101666,-322.41862)">
<g style="writing-mode:lr-tb;letter-spacing:0px;word-spacing:0px;" font-weight="300" font-size="16.8340435px" font-style="normal" font-stretch="normal" line-height="125%" font-variant="normal" font-family="Josefin Sans Std" fill="#444">
<path d="m52.926535,345.88089c0.639693,0.62286,1.599235,1.01004,2.558774,1.01004,1.834909,0,3.248971-1.41406,3.265805-3.19846v-7.33965h-0.53869l-0.08417,1.73391c-0.454519-1.09421-1.414061-1.85175-2.743949-1.85175-1.818075,0-3.282639,1.4814-3.282639,3.28264s1.464564,3.29947,3.282639,3.29947c1.329888,0,2.339932-0.82486,2.794451-1.91908l-0.0505,0.75754v2.03692c0,1.49822-1.094214,2.65977-2.642945,2.65977-0.791199,0-1.599235-0.31984-2.121089-0.82486l-0.437685,0.35351m2.45777-3.61932c-1.565565,0-2.659779-1.21205-2.659779-2.74395,0-1.56556,1.094214-2.72711,2.659779-2.72711,1.582398,0,2.676613,1.16155,2.676613,2.72711,0,1.5319-1.094215,2.74395-2.676613,2.74395"/>
<path d="m66.41376,338.52441c-0.42085-1.31305-1.430895-2.27259-2.912289-2.27259-1.818075,0-3.282639,1.4814-3.282639,3.28264s1.464564,3.29947,3.282639,3.29947c0.892203,0,1.666571-0.35352,2.238927-0.90904l-0.420851-0.33668c-0.471352,0.43768-1.094213,0.6902-1.818076,0.6902-1.178382,0-2.087422-0.67337-2.474605-1.66657l5.386894-2.08743m-5.572068,1.01005c0-1.56557,1.094214-2.72712,2.659779-2.72712,1.077377,0,1.767575,0.53869,2.188425,1.38039l-4.814536,1.86858c-0.01683-0.16834-0.03367-0.33668-0.03367-0.52185"/>
<path d="m73.869137,342.66559,0-4.54519c-0.03367-1.11105-0.858537-1.88542-2.188426-1.88542-1.262552,0.0337-2.238928,0.7407-2.710281,1.81808l-0.06734-1.6834h-0.555523v6.29593h0.622859v-3.51832c0-1.36355,1.279389-2.35676,2.727115-2.35676,1.04371,0.0505,1.515064,0.62286,1.548732,1.32989v4.54519h0.62286"/>
<path d="m81.242186,338.52441c-0.420851-1.31305-1.430896-2.27259-2.91229-2.27259-1.818075,0-3.282638,1.4814-3.282638,3.28264s1.464563,3.29947,3.282638,3.29947c0.892203,0,1.666571-0.35352,2.238928-0.90904l-0.420851-0.33668c-0.471353,0.43768-1.094214,0.6902-1.818077,0.6902-1.178382,0-2.087422-0.67337-2.474604-1.66657l5.386894-2.08743m-5.572069,1.01005c0-1.56557,1.094215-2.72712,2.659779-2.72712,1.077378,0,1.767575,0.53869,2.188426,1.38039l-4.814537,1.86858c-0.01683-0.16834-0.03367-0.33668-0.03367-0.52185"/>
<path d="m83.175996,336.36966,0,6.29593,0.62286,0,0-3.51832c0.16834-1.32988,1.228886-2.30626,2.626111-2.35676l0.01683-0.55553c-1.228884,0.0505-2.171592,0.75754-2.642945,1.81808l-0.06734-1.6834h-0.555524"/>
<path d="m93.734359,342.66559,0-6.31277-0.538689,0-0.08417,1.73391c-0.454519-1.09421-1.414061-1.85175-2.743949-1.85175-1.818075,0-3.282639,1.4814-3.282639,3.28264s1.464564,3.29947,3.282639,3.29947c1.329888,0,2.339932-0.82486,2.794451-1.91908l-0.0505,0.75754v1.01004h0.622859m-3.366808-0.40402c-1.565565,0-2.659779-1.21205-2.659779-2.74395,0-1.56556,1.094214-2.72711,2.659779-2.72711,1.582398,0,2.676613,1.16155,2.676613,2.72711,0,1.5319-1.094215,2.74395-2.676613,2.74395"/>
<path d="m97.528598,342.66559,0-5.75724,1.935915,0,0-0.55553-1.935915,0,0-4.1075-0.622859,0,0,4.1075-1.094213,0,0,0.55553,1.094213,0,0,5.75724,0.622859,0"/>
<path d="m106.03294,338.52441c-0.42085-1.31305-1.43089-2.27259-2.91229-2.27259-1.81807,0-3.282634,1.4814-3.282634,3.28264s1.464564,3.29947,3.282634,3.29947c0.89221,0,1.66658-0.35352,2.23893-0.90904l-0.42085-0.33668c-0.47135,0.43768-1.09421,0.6902-1.81808,0.6902-1.17838,0-2.08742-0.67337-2.4746-1.66657l5.38689-2.08743m-5.57206,1.01005c0-1.56557,1.09421-2.72712,2.65977-2.72712,1.07738,0,1.76758,0.53869,2.18843,1.38039l-4.81454,1.86858c-0.0168-0.16834-0.0337-0.33668-0.0337-0.52185"/>
<path d="m113.82342,342.66559,0-12.62553-0.62285,0,0,8.04667c-0.45452-1.09421-1.41407-1.85175-2.74395-1.85175-1.81808,0-3.28264,1.4814-3.28264,3.28264s1.46456,3.29947,3.28264,3.29947c1.32988,0,2.33993-0.82486,2.79445-1.91908l-0.0505,0.75754v1.01004h0.62285m-3.3668-0.40402c-1.56557,0-2.65978-1.21205-2.65978-2.74395,0-1.56556,1.09421-2.72711,2.65978-2.72711,1.58239,0,2.67661,1.16155,2.67661,2.72711,0,1.5319-1.09422,2.74395-2.67661,2.74395"/>
<path d="m121.90745,342.66559,0.62285,0,0-1.01004-0.0505-0.75754c0.45452,1.09422,1.46457,1.91908,2.79445,1.91908,1.81808,0,3.28264-1.49823,3.28264-3.29947s-1.46456-3.28264-3.28264-3.28264c-1.32988,0-2.28943,0.75754-2.74395,1.85175v-8.04667h-0.62285v12.62553m3.3668-0.40402c-1.58239,0-2.67661-1.21205-2.67661-2.74395,0-1.56556,1.09422-2.72711,2.67661-2.72711,1.56557,0,2.65978,1.16155,2.65978,2.72711,0,1.5319-1.09421,2.74395-2.65978,2.74395"/>
<path d="m131.55598,346.8741,5.30273-10.52128-0.65653,0-2.72712,5.4374-2.72711-5.4374-0.65653,0,3.04696,6.06026-2.22209,4.46102,0.63969,0"/>
</g>
<path fill="#e65ca3" d="m162.54295,326.43094-0.63797,0.36059,0.60099,1.03555c0.16696-0.17701,0.38703-0.30111,0.63797-0.3421l-0.60099-1.05404zm0.96158,0.24964-0.21266,0.78591c0.0124-0.0003,0.0245,0,0.037,0,0.20544,0,0.38855,0.0617,0.55476,0.15718l0.21266-0.78591-0.59174-0.15718zm1.55332,0.42531-1.0448,0.60099c0.19578,0.15134,0.34271,0.3637,0.40683,0.61023l1.0078-0.58249-0.36983-0.62873zm-3.421,0.65647-0.15718,0.58249,0.72118,0.19416c0.0119-0.20999,0.074-0.40911,0.18492-0.57324l-0.74892-0.20341zm2.81076,0.74892c0.002,0.0307,0.009,0.0611,0.009,0.0925,0,0.18718-0.0492,0.35289-0.12944,0.50852l0.69345,0.18492,0.15718-0.59174-0.73042-0.19416zm-2.23751,0.23115-0.98007,0.57324,0.36983,0.63797,0.93384-0.54551c-0.1783-0.17426-0.29052-0.40568-0.3236-0.6657zm1.98787,0.564c-0.15442,0.19054-0.36404,0.33834-0.61023,0.39757l0.52702,0.9246,0.63797-0.36984-0.55476-0.95233zm-1.46086,0.25888-0.17567,0.64722,0.5825,0.16643,0.17567-0.64722c-0.21259-0.002-0.41306-0.0631-0.5825-0.16643z"/>
<path fill="url(#linearGradient3376)" d="m159.64498,342.67387,0-7.29189c-0.054-1.78246-1.37735-3.02479-3.51091-3.02479-2.02552,0.054-3.59193,1.18831-4.34812,3.02479-0.054-1.78246-1.37736-3.02479-3.51091-3.02479-2.02552,0.054-3.59193,1.18831-4.34813,2.91676l-0.10803-2.7007h-0.89123v10.10062h0.99926v-5.64447c0-2.18756,2.05254-3.78097,4.37513-3.78097,1.67444,0.081,2.43063,0.99925,2.48465,2.13355v7.29189h0.99926v-5.80651c0-2.10654,2.10655-3.61893,4.37513-3.61893,1.67443,0.081,2.43063,0.99925,2.48464,2.13355v7.29189h0.99926"/>
<path fill="url(#linearGradient3376)" d="m163.71671,342.67387,0-10.12763-0.99926,0,0,10.12763,0.99926,0m-0.3781-13.20642c0.40511,0,0.83722-0.3511,0.83722-0.86423,0-0.48612-0.43211-0.86422-0.83722-0.86422-0.43211,0-0.86422,0.3781-0.86422,0.86422,0,0.51313,0.43211,0.86423,0.86422,0.86423"/>
<path fill="url(#linearGradient3376)" d="m172.14543,333.57251c-0.7562-0.86422-1.97152-1.1613-2.72771-1.1613-1.32334,0-2.80873,0.91824-2.80873,2.78172,0,1.9175,1.59341,2.24158,2.56567,2.56566,1.1613,0.3781,2.37661,0.78321,2.37661,2.18757,0,1.45838-1.32334,1.99852-2.10654,2.05253-0.78321,0.054-2.07954-0.4051-2.59268-1.10728l-0.59415,0.72918c0.72919,0.91824,2.07954,1.26933,3.1058,1.26933,2.24159,0,3.18683-1.67443,3.18683-2.99777,0-1.91749-1.9175-2.61968-3.37587-3.10581-0.94525-0.32408-1.59342-0.67517-1.59342-1.72845,0-1.29633,1.02627-1.75545,1.83648-1.75545,0.91824,0,1.9175,0.59415,2.21457,0.97225l0.51314-0.70218"/>
<path fill="url(#linearGradient3376)" d="m185.39658,342.67387,0-10.12763-0.86423,0-0.13503,2.78172c-0.72919-1.75545-2.26859-2.97077-4.40214-2.97077-2.91675,0-5.26637,2.37663-5.26637,5.26637,0,2.88975,2.34962,5.29337,5.26637,5.29337,2.13355,0,3.75397-1.32334,4.48316-3.0788l-0.081,1.21532v1.62042h0.99926m-5.4014-0.64817c-2.51165,0-4.26711-1.9445-4.26711-4.40214,0-2.51165,1.75546-4.37513,4.26711-4.37513,2.53866,0,4.29411,1.86348,4.29411,4.37513,0,2.45764-1.75545,4.40214-4.29411,4.40214"/>
<path fill="url(#linearGradient3376)" d="m197.51386,342.67387-4.51017-6.23862,3.862-3.64594-0.59415-0.64817-6.04957,5.61745,0-15.33997-0.97225,0,0,20.25525,0.99925,0,0-3.64595,2.05254-1.91749,4.07805,5.56344,1.1343,0"/>
<path fill="url(#linearGradient3376)" d="m201.64255,342.67387,0-10.12763-0.99926,0,0,10.12763,0.99926,0m-0.3781-13.20642c0.40511,0,0.83722-0.3511,0.83722-0.86423,0-0.48612-0.43211-0.86422-0.83722-0.86422-0.43211,0-0.86422,0.3781-0.86422,0.86422,0,0.51313,0.43211,0.86423,0.86422,0.86423"/>
</g>
</svg>
